<mxfile host="drawio-plugin" modified="2021-11-19T10:27:25.524Z" agent="5.0 (Windows NT 6.2; Win64; x64) AppleWebKit/537.36 (KHTML, like Gecko) Chrome/89.0.4389.114 Safari/537.36" etag="_OKZhzG5YRyVWGDSkMOg" version="14.7.4" type="embed" pages="2"><diagram id="23iRSUPoRavnBvh4doch" name="Page-1"><mxGraphModel dx="1176" dy="1092" grid="1" gridSize="10" guides="1" tooltips="1" connect="1" arrows="1" fold="1" page="1" pageScale="1" pageWidth="827" pageHeight="1169" math="0" shadow="0"><root><mxCell id="0"/><mxCell id="1" parent="0"/></root></mxGraphModel></diagram><diagram id="SG_S3SyzZy6wHsbrQa8V" name="Page-2"><mxGraphModel dx="1176" dy="1092" grid="1" gridSize="10" guides="1" tooltips="1" connect="1" arrows="1" fold="1" page="1" pageScale="1" pageWidth="850" pageHeight="1100" math="0" shadow="0"><root><mxCell id="5enCa1EZG8XqJzdGuXek-0"/><mxCell id="5enCa1EZG8XqJzdGuXek-1" parent="5enCa1EZG8XqJzdGuXek-0"/></root></mxGraphModel></diagram></mxfile>